<svg id="Layer_1" data-name="Layer 1" xmlns="http://www.w3.org/2000/svg" viewBox="0 0 608.32 143.31"><defs><style>.cls-1{fill:#009ace;}.cls-2{fill:#635d59;}</style></defs><title>logo</title><path class="cls-1" d="M351.5,208.83A40.54,40.54,0,0,0,311,249.27V283.2a10.5,10.5,0,0,1-21,0v-17a56.53,56.53,0,1,0-19.41,43.51,39.82,39.82,0,0,0,30.22,13.89A40.27,40.27,0,0,0,341,283.2V249.27a10.5,10.5,0,0,1,21,0V266h30V249.27A40.54,40.54,0,0,0,351.5,208.83ZM233.26,293.64a27.4,27.4,0,1,1,27.4-27.4A27.44,27.44,0,0,1,233.26,293.64Z" transform="translate(-175.68 -208)"/><path class="cls-2" d="M464,275.89c-6-8.31-14.76-13.82-25.43-13.82a30.53,30.53,0,0,0,0,61.06c10.67,0,19.46-5.5,25.46-13.82V320h5V208h-5v67.89Zm-25.33,42.25a25.53,25.53,0,1,1,25.53-25.53A25.56,25.56,0,0,1,438.67,318.14Z" transform="translate(-175.68 -208)"/><path class="cls-2" d="M513.88,317.73a24.87,24.87,0,0,1-16.05-5.45l39.26-39.21-1.77-1.74a30.31,30.31,0,1,0-21.44,51.4A30.53,30.53,0,0,0,544.21,292h-5C539.21,306,527.85,317.73,513.88,317.73Zm-25.32-24.92a25.33,25.33,0,0,1,41.38-19.59l-35.64,35.65A25.13,25.13,0,0,1,488.56,292.81Z" transform="translate(-175.68 -208)"/><path class="cls-2" d="M581.94,267.49c12.74,0,18.37-.49,18.37,11.51h5c0-17-11.88-16.51-23.37-16.51s-23.37,0-23.37,16.52c0,16.31,11.88,16.31,23.37,16.31,12.74,0,18.37.47,18.37,11.52,0,10.85-5.63,10.9-18.37,10.9S563.57,317,563.57,306h-5c0,17,11.88,16.72,23.37,16.72s23.37,0.21,23.37-16.1c0-16.52-11.88-16.41-23.37-16.41-12.74,0-18.37-.41-18.37-11.26C563.57,267.9,569.2,267.49,581.94,267.49Z" transform="translate(-175.68 -208)"/><rect class="cls-2" x="448.32" y="57" width="5" height="56"/><circle class="cls-2" cx="451.49" cy="5.51" r="3.5"/><path class="cls-2" d="M704,276.48a29.17,29.17,0,0,0-25-13.67,30.33,30.33,0,0,0-.09,60.65A29.31,29.31,0,0,0,704,309.79V321a25.08,25.08,0,0,1-25,25.34c-14,0-25-12.31-25-25.31h-5c0,16,13.26,30.31,30,30.31A30.09,30.09,0,0,0,709,321V265h-5v11.48Zm-24.64,42a25.32,25.32,0,1,1,25.33-25.33A25.35,25.35,0,0,1,679.36,318.46Z" transform="translate(-175.68 -208)"/><path class="cls-2" d="M754,262.81c-10,0-20,0-25,8.09V265h-5v56h5V293.14c0-25.32,9.75-25.32,25-25.32s25,0,25,25.32V321h5V293.14C784,262.81,769.59,262.81,754,262.81Z" transform="translate(-175.68 -208)"/></svg>