<?xml version="1.0" encoding="utf-8"?>
<!-- Generator: Adobe Illustrator 21.0.0, SVG Export Plug-In . SVG Version: 6.00 Build 0)  -->
<!DOCTYPE svg PUBLIC "-//W3C//DTD SVG 1.1//EN" "http://www.w3.org/Graphics/SVG/1.1/DTD/svg11.dtd">
<svg version="1.1" id="Layer_1" xmlns="http://www.w3.org/2000/svg" xmlns:xlink="http://www.w3.org/1999/xlink" x="0px" y="0px"
	 viewBox="0 0 216.3 114.8" style="enable-background:new 0 0 216.3 114.8;" xml:space="preserve">
	 <metadata>
	     <rdf:RDF xmlns:cc="http://web.resource.org/cc/"
	              xmlns:rdf="http://www.w3.org/1999/02/22-rdf-syntax-ns#">
	       <cc:work rdf:about="http://ardesignme.com">
	         <cc:license>
	            <cc:prohibits rdf:resource="http://web.resource.org/cc/Reproduction"/>
	            <cc:prohibits rdf:resource="http://web.resource.org/cc/Distribution"/>
	         </cc:license>
	       </cc:work>
	     </rdf:RDF>
	   </metadata>
<style type="text/css">
	.st0{fill:#000000;}
</style>
<g>
	<path class="st0" d="M175.8,0c-22.3,0-40.5,18.1-40.5,40.4v33.9c0,5.8-4.7,10.4-10.5,10.4s-10.5-4.7-10.5-10.4v-17
		C114.3,25.8,88.9,0,57.2,0S0,25.8,0,57.4c0,31.7,25.8,57.4,57.5,57.4c14.3,0,27.4-5.2,37.4-13.9c7.4,8.5,18.1,13.9,30.2,13.9
		c22.3,0,40.2-18.1,40.2-40.4V40.4c0-5.8,4.7-10.4,10.5-10.4s10.5,4.7,10.5,10.4v16.7h30V40.4C216.3,18.1,198.1,0,175.8,0z
		 M57.6,84.8c-15.1,0-27.4-12.3-27.4-27.4S42.5,30,57.6,30C72.7,30,85,42.3,85,57.4S72.7,84.8,57.6,84.8z"/>
</g>
</svg>
